<svg width="84" height="84" viewBox="0 0 84 84" fill="none" xmlns="http://www.w3.org/2000/svg">
<path d="M56.7004 37.8002C60.1798 37.8002 63.0004 34.9796 63.0004 31.5002C63.0004 28.0208 60.1798 25.2002 56.7004 25.2002C53.221 25.2002 50.4004 28.0208 50.4004 31.5002C50.4004 34.9796 53.221 37.8002 56.7004 37.8002Z" fill="white"/>
<path d="M27.3 37.8002C30.7794 37.8002 33.6 34.9796 33.6 31.5002C33.6 28.0208 30.7794 25.2002 27.3 25.2002C23.8206 25.2002 21 28.0208 21 31.5002C21 34.9796 23.8206 37.8002 27.3 37.8002Z" fill="white"/>
<path d="M41.958 0C18.774 0 0 18.816 0 42C0 65.184 18.774 84 41.958 84C65.184 84 84 65.184 84 42C84 18.816 65.184 0 41.958 0ZM42 75.6C23.436 75.6 8.4 60.564 8.4 42C8.4 23.436 23.436 8.4 42 8.4C60.564 8.4 75.6 23.436 75.6 42C75.6 60.564 60.564 75.6 42 75.6ZM42 50.4C34.02 50.4 26.754 54.474 22.47 61.236C21.546 62.706 22.008 64.638 23.478 65.562C24.948 66.486 26.88 66.024 27.804 64.554C30.912 59.598 36.204 56.658 42 56.658C47.796 56.658 53.088 59.598 56.196 64.554C56.784 65.52 57.834 66.024 58.884 66.024C59.472 66.024 60.018 65.856 60.564 65.562C62.034 64.638 62.496 62.706 61.572 61.236C57.246 54.432 49.98 50.4 42 50.4Z" fill="white"/>
</svg>
